<svg width="100%" height="100%" viewBox="0 0 186 42" version="1.1" xmlns="http://www.w3.org/2000/svg" xmlns:xlink="http://www.w3.org/1999/xlink" xml:space="preserve" xmlns:serif="http://www.serif.com/" style="fill-rule:evenodd;clip-rule:evenodd;stroke-linejoin:round;stroke-miterlimit:2;"><rect id="Mesa-de-trabajo1" serif:id="Mesa de trabajo1" x="0" y="0" width="185.819" height="41.076" style="fill:none;"/><clipPath id="_clip1"><rect x="0" y="0" width="185.819" height="41.076"/></clipPath><g clip-path="url(#_clip1)"><g><path d="M58.424,20.418c6.506,0 9.224,-1.984 9.224,-8.708c0,-5.429 -2.652,-8.66 -7.379,-8.66c-3.904,0 -3.739,1.017 -3.855,3.985c-0.049,2.313 -0.164,7.102 -0.214,11.136c0,1.46 0.758,2.198 2.224,2.263m-9.982,17.598c3.097,-0.328 4.233,-1.509 4.398,-4.362c0.115,-2.05 0.165,-6.347 0.165,-12.858c-0,-5.544 -0.05,-12.317 -0.165,-13.727c-0.165,-2.854 -1.301,-4.035 -4.398,-4.363c-1.68,-0.164 -1.581,-1.181 0,-1.181c2.224,0 3.64,0.377 5.798,0.377c1.96,0 4.283,-0.377 5.749,-0.377c5.962,0 11.563,3.444 11.563,10.169c-0,7.265 -5.205,10.053 -13.178,10.119c-1.416,-0 -2.174,0.803 -2.174,2.263c0.05,4.461 0.116,7.593 0.214,9.627c0.116,2.263 1.351,3.919 5.107,4.297c1.564,0.164 1.466,1.295 -0,1.18c-2.059,-0.164 -4.563,-0.377 -6.721,-0.377c-2.158,0 -4.118,0.377 -6.342,0.377c-1.581,0 -1.68,-1.016 0,-1.18" style="fill:#EDEBE3;fill-rule:nonzero;"/><path d="M80.678,10.889c0.659,-0.426 1.351,-0.164 1.302,0.542c-0.116,1.23 -0.264,5.871 -0.264,6.773c0,0.377 0.214,0.492 0.494,0.492c0.28,0 0.33,-0.115 0.494,-0.492c2.603,-6.085 5.864,-7.528 7.874,-7.528c1.252,0 2.059,0.919 1.845,2.313c-0.214,1.394 -1.087,2.148 -3.146,2.197c-4.398,0.115 -7.264,3.231 -7.264,10.005l0.049,8.495c-0,2.263 1.351,3.936 5.106,4.297c1.581,0.164 1.466,1.295 0,1.181c-2.059,-0.164 -4.563,-0.378 -6.72,-0.378c-2.158,0 -4.118,0.378 -6.342,0.378c-1.581,-0 -1.68,-1.017 0,-1.181c3.097,-0.328 4.233,-1.509 4.398,-4.363c0.165,-2.804 0.165,-5.281 0.165,-8.183c-0,-2.903 -0.165,-7.315 -0.379,-8.988c-0.214,-1.673 -1.417,-2.476 -3.097,-2.575c-1.301,-0.115 -1.581,-1.017 0,-1.295c2.224,-0.378 4.398,-0.968 5.535,-1.722" style="fill:#EDEBE3;fill-rule:nonzero;"/><path d="M98.964,21.009c9.339,-0 11.662,0.049 11.662,-2.264c0,-3.329 -2.273,-6.347 -6.243,-6.347c-3.97,0 -6.342,2.641 -7.165,6.675c-0.28,1.394 0.214,1.936 1.729,1.936m-5.963,5.592c0,-9.955 5.584,-15.925 11.564,-15.925c9.01,0 13.885,11.513 7.428,11.513l-13.408,0c-1.252,0 -1.894,0.804 -1.894,2.362c0,7.692 3.805,12.267 8.467,12.218c3.524,-0.049 6.407,-1.673 8.137,-3.936c1.251,-1.673 1.894,-0.968 0.873,0.804c-2.603,4.575 -6.787,6.347 -9.818,6.347c-6.621,-0 -11.332,-4.789 -11.332,-13.399" style="fill:#EDEBE3;fill-rule:nonzero;"/><path d="M123.982,30.16c0.05,5.002 3.311,8.118 7.165,8.118c4.184,0 7.973,-4.576 7.973,-12.153c0,-7.577 -3.805,-12.316 -8.253,-12.218c-4.068,0.115 -7,4.527 -6.951,11.3l0.05,4.953l0.016,-0Zm-7.165,-27.225c2.224,-0.377 4.398,-0.967 5.535,-1.722c0.658,-0.426 1.35,-0.164 1.301,0.541c-0.116,1.231 -0.379,14.958 -0.379,16.417c-0,0.591 0.708,0.755 0.922,0c1.351,-4.789 4.283,-7.478 8.846,-7.478c4.875,-0 10.031,4.461 10.031,13.399c0,9.955 -5.864,15.925 -11.662,15.925c-5.798,-0 -6.342,-3.773 -7.972,-3.773c-0.659,0 -1.351,0.853 -2.273,2.477c-0.808,1.394 -1.895,1.345 -1.73,-0.213c1.252,-11.727 0.494,-20.763 0.494,-31.686c0,-1.673 -1.416,-2.427 -3.097,-2.591c-1.301,-0.115 -1.581,-1.017 -0,-1.296" style="fill:#EDEBE3;fill-rule:nonzero;"/><path d="M152.628,21.009c9.339,-0 11.662,0.049 11.662,-2.264c-0,-3.329 -2.273,-6.347 -6.243,-6.347c-3.97,0 -6.342,2.641 -7.165,6.675c-0.28,1.394 0.214,1.936 1.729,1.936m-5.963,5.592c-0,-9.955 5.584,-15.925 11.564,-15.925c9.01,0 13.885,11.513 7.428,11.513l-13.408,0c-1.251,0 -1.894,0.804 -1.894,2.362c-0,7.692 3.805,12.267 8.467,12.218c3.525,-0.049 6.407,-1.673 8.137,-3.936c1.251,-1.673 1.894,-0.968 0.873,0.804c-2.603,4.575 -6.787,6.347 -9.818,6.347c-6.621,-0 -11.332,-4.789 -11.332,-13.399" style="fill:#EDEBE3;fill-rule:nonzero;"/><path d="M178.9,33.702c0.049,2.264 1.35,3.936 5.106,4.297c1.581,0.164 1.466,1.296 0,1.181c-2.059,-0.164 -4.563,-0.377 -6.721,-0.377c-2.157,-0 -4.118,0.377 -6.341,0.377c-1.582,0 -1.68,-1.017 0,-1.181c3.096,-0.328 4.233,-1.509 4.398,-4.362c0.164,-2.805 0.164,-9.578 0.164,-12.481c0,-3.182 -0.164,-12.481 -0.378,-14.039c-0.215,-1.672 -1.417,-2.427 -3.097,-2.591c-1.301,-0.115 -1.581,-1.017 0,-1.296c2.224,-0.377 4.398,-0.967 5.534,-1.722c0.659,-0.426 1.351,-0.164 1.302,0.542c-0.165,2.361 -0.165,5.494 -0.165,19.631c0,2.575 0.165,9.151 0.214,11.989" style="fill:#EDEBE3;fill-rule:nonzero;"/><path d="M31.511,25.797c3.755,0 6.819,3.034 6.819,6.757c0,3.723 -3.047,6.757 -6.819,6.757c-3.772,0 -6.82,-3.034 -6.82,-6.757c0,-3.723 3.048,-6.757 6.82,-6.757Z" style="fill:#EDEBE3;fill-rule:nonzero;"/><path d="M6.819,1.705c3.756,0 6.82,3.034 6.82,6.757c-0,3.723 -3.048,6.757 -6.82,6.757c-3.772,0 -6.819,-3.034 -6.819,-6.757c0,-3.723 3.047,-6.757 6.819,-6.757Z" style="fill:#EDEBE3;fill-rule:nonzero;"/><path d="M7.675,39.262c3.064,-0.361 5.519,-2.821 5.897,-5.855l0,-0.098c0.429,-3.805 2.026,-7.38 4.744,-10.087l3.459,-3.427c2.751,-2.739 6.441,-4.264 10.328,-4.609c0.132,0 0.264,-0.032 0.395,-0.049c2.982,-0.426 5.37,-2.821 5.749,-5.789c0.577,-4.412 -3.146,-8.135 -7.593,-7.61c-3.015,0.361 -5.469,2.755 -5.897,5.74c-0,0.049 -0,0.099 -0.017,0.131c-0.445,3.69 -2.075,7.134 -4.711,9.759l-3.772,3.739c-2.734,2.706 -6.358,4.297 -10.196,4.707l-0.099,-0c-3.063,0.377 -5.534,2.82 -5.913,5.855c-0.544,4.395 3.179,8.101 7.61,7.56" style="fill:#EDEBE3;fill-rule:nonzero;"/></g></g></svg>