<svg width="300" height="39" viewBox="0 0 300 39" fill="none" xmlns="http://www.w3.org/2000/svg">
<g clip-path="url(#clip0_319_3213)">
<path d="M204.679 21.0253C205.058 20.8613 205.338 20.6317 205.535 20.3365C205.733 20.0413 205.815 19.6805 205.815 19.2705C205.815 18.6473 205.601 18.1717 205.157 17.8109C204.728 17.4501 204.086 17.2861 203.246 17.2861H200.017V21.2713H203.246C203.806 21.2713 204.284 21.1893 204.662 21.0253M204.053 15.7444C204.366 15.6132 204.596 15.4164 204.761 15.154C204.926 14.908 204.992 14.6128 204.992 14.2684C204.992 13.76 204.811 13.35 204.465 13.0548C204.119 12.7432 203.592 12.5956 202.916 12.5956H200.017V15.9412H202.916C203.361 15.9412 203.74 15.8756 204.053 15.7444ZM198.502 11.2507H203.098C203.789 11.2507 204.382 11.3655 204.909 11.6115C205.437 11.8575 205.832 12.1856 206.128 12.612C206.425 13.0384 206.557 13.5304 206.557 14.088C206.557 14.744 206.359 15.2688 205.947 15.6952C205.535 16.1052 204.975 16.3512 204.234 16.4332V16.466C205.222 16.4988 205.997 16.7776 206.557 17.2861C207.117 17.7945 207.38 18.4669 207.38 19.2869C207.38 19.9265 207.216 20.5005 206.903 21.0089C206.573 21.5173 206.112 21.911 205.519 22.2062C204.909 22.5014 204.218 22.649 203.427 22.649H198.502V11.2835V11.2507Z" fill="white"/>
<path d="M209.274 11.2507H217.114V12.5956H210.806V16.2528H216.488V17.5977H210.806V21.2713H217.131V22.6162H209.274V11.2507Z" fill="white"/>
<path d="M220.063 18.2371H225.548V19.5655H220.063V18.2371ZM222.006 11.2341H223.555L227.837 22.5996H226.239L223.884 16.023C223.736 15.5966 223.604 15.1866 223.439 14.7766C223.291 14.3502 223.176 14.0386 223.11 13.8418C223.044 13.645 222.929 13.3334 222.78 12.9234H222.764C222.401 13.9566 222.023 15.0062 221.66 16.0394L219.305 22.616H217.707L222.006 11.2505V11.2341Z" fill="white"/>
<path d="M230.967 22.3044C230.292 21.9436 229.748 21.4187 229.353 20.7135C228.957 20.0247 228.76 19.1883 228.76 18.2371V11.2341H230.275V18.2043C230.275 18.9095 230.407 19.4999 230.67 20.0083C230.934 20.5003 231.28 20.8775 231.741 21.1235C232.186 21.3859 232.696 21.5007 233.273 21.5007C233.85 21.5007 234.344 21.3695 234.805 21.1235C235.25 20.8775 235.612 20.5003 235.876 20.0083C236.139 19.5163 236.271 18.9095 236.271 18.2043V11.2341H237.786V18.2371C237.786 19.2047 237.589 20.0247 237.193 20.7135C236.798 21.4023 236.271 21.9436 235.579 22.3044C234.904 22.6652 234.13 22.8456 233.273 22.8456C232.416 22.8456 231.642 22.6652 230.967 22.3044Z" fill="white"/>
<path d="M243.19 12.5956H239.27V11.2507H248.625V12.5956H244.705V22.6162H243.19V12.5956Z" fill="white"/>
<path d="M252.955 18.0894L249.035 11.2505H250.748L253.713 16.7446H253.746L256.711 11.2505H258.424L254.471 18.0894V22.6159H252.955V18.0894Z" fill="white"/>
<path d="M261.308 22.1241C260.451 21.6321 259.793 20.9432 259.331 20.0412C258.87 19.1392 258.623 18.106 258.623 16.9088C258.623 15.7115 258.854 14.6619 259.298 13.7763C259.743 12.8907 260.402 12.2019 261.242 11.7263C262.082 11.2506 263.087 11.0046 264.24 11.0046C265.278 11.0046 266.184 11.2014 266.958 11.6115C267.715 12.0215 268.325 12.5627 268.753 13.2679C269.181 13.9731 269.429 14.7439 269.511 15.5967H267.946C267.897 15.0063 267.732 14.4651 267.419 13.9731C267.122 13.4811 266.694 13.0875 266.151 12.7923C265.607 12.4971 264.965 12.3495 264.24 12.3495C263.416 12.3495 262.692 12.5299 262.099 12.9071C261.489 13.2679 261.028 13.8091 260.699 14.4979C260.369 15.1867 260.204 15.9903 260.204 16.9252C260.204 17.86 260.386 18.6472 260.731 19.3524C261.077 20.0412 261.571 20.5824 262.181 20.9596C262.79 21.3368 263.482 21.5337 264.24 21.5337C264.948 21.5337 265.574 21.3861 266.101 21.0744C266.628 20.7792 267.057 20.3856 267.37 19.9264C267.683 19.4672 267.88 18.9916 267.946 18.4996H269.511C269.412 19.3032 269.149 20.0412 268.704 20.6972C268.259 21.3696 267.666 21.8945 266.908 22.2881C266.151 22.6817 265.261 22.8785 264.256 22.8785C263.153 22.8785 262.164 22.6325 261.324 22.1405" fill="white"/>
<path d="M272.361 18.2371H277.846V19.5655H272.361V18.2371ZM274.305 11.2341H275.853L280.136 22.5996H278.538L276.183 16.023C276.035 15.5966 275.903 15.1866 275.738 14.7766C275.59 14.3502 275.474 14.0386 275.409 13.8418C275.343 13.645 275.227 13.3334 275.079 12.9234H275.063C274.7 13.9566 274.321 15.0062 273.959 16.0394L271.604 22.616H270.006L274.305 11.2505V11.2341Z" fill="white"/>
<path d="M287.07 16.3512C287.547 16.1872 287.926 15.9576 288.173 15.646C288.42 15.3344 288.552 14.9408 288.552 14.498C288.552 13.8912 288.338 13.4156 287.893 13.0876C287.465 12.7596 286.839 12.5956 286.015 12.5956H283.166V16.5972H285.291C285.999 16.5972 286.592 16.5152 287.086 16.3676M281.667 11.2507H286.048C287.333 11.2507 288.338 11.5295 289.063 12.1035C289.787 12.6776 290.15 13.432 290.15 14.3668C290.15 14.8588 290.051 15.3016 289.853 15.6788C289.656 16.0724 289.359 16.4004 288.964 16.6628C288.585 16.9252 288.107 17.1221 287.564 17.2205V17.2533C288.206 17.4993 288.684 17.8601 289.013 18.3357C289.343 18.8113 289.606 19.4509 289.82 20.2545L290.479 22.6162H288.914L288.371 20.6317C288.173 19.8773 287.943 19.3197 287.712 18.9425C287.481 18.5653 287.168 18.3029 286.79 18.1553C286.411 18.0077 285.884 17.9257 285.208 17.9257H283.166V22.6162H281.65V11.2507H281.667Z" fill="white"/>
<path d="M292.127 11.2505H299.984V12.5953H293.659V16.2526H299.342V17.5974H293.659V21.2711H300V22.6159H292.127V11.2505Z" fill="white"/>
<path d="M204.563 31.6362C204.942 31.4722 205.238 31.2426 205.436 30.931C205.633 30.6358 205.732 30.2586 205.732 29.8486C205.732 29.209 205.502 28.7006 205.057 28.3234C204.612 27.9462 203.986 27.7494 203.212 27.7494H200.033V31.8823H203.212C203.739 31.8823 204.184 31.8003 204.563 31.6362ZM198.518 26.4045H203.393C204.151 26.4045 204.826 26.5357 205.419 26.8145C206.012 27.0934 206.473 27.487 206.819 28.0118C207.165 28.5366 207.33 29.1434 207.33 29.8486C207.33 30.5538 207.165 31.1606 206.836 31.669C206.506 32.1775 206.045 32.5711 205.436 32.8335C204.843 33.0959 204.151 33.2271 203.393 33.2271H200.033V37.77H198.518V26.4045Z" fill="white"/>
<path d="M209.094 33.4075H214.579V34.7359H209.094V33.4075ZM211.037 26.4045H212.586L216.868 37.77H215.271L212.915 31.1934C212.767 30.767 212.635 30.357 212.47 29.947C212.322 29.5206 212.207 29.209 212.141 29.0122C212.075 28.8154 211.96 28.5038 211.812 28.0938H211.795C211.433 29.127 211.054 30.1766 210.692 31.2098L208.336 37.7864H206.738L211.037 26.4209V26.4045Z" fill="white"/>
<path d="M223.802 31.5051C224.28 31.3411 224.659 31.1115 224.906 30.7999C225.153 30.4883 225.284 30.0947 225.284 29.6518C225.284 29.045 225.07 28.5694 224.626 28.2414C224.197 27.9134 223.571 27.7494 222.748 27.7494H219.898V31.7511H222.023C222.731 31.7511 223.324 31.6691 223.818 31.5215M218.399 26.4046H222.781C224.066 26.4046 225.07 26.6834 225.795 27.2574C226.52 27.8314 226.882 28.5858 226.882 29.5206C226.882 30.0127 226.783 30.4555 226.586 30.8327C226.388 31.2263 226.092 31.5543 225.696 31.8167C225.317 32.0791 224.84 32.2759 224.296 32.3743V32.4071C224.939 32.6531 225.416 33.0139 225.746 33.4895C226.075 33.9651 226.339 34.6048 226.553 35.4084L227.212 37.7536H225.647L225.103 35.7692C224.906 35.0312 224.675 34.4571 224.444 34.0799C224.214 33.7027 223.901 33.4403 223.522 33.2927C223.143 33.1451 222.616 33.0631 221.941 33.0631H219.898V37.7536H218.383V26.3882L218.399 26.4046Z" fill="white"/>
<path d="M231.61 27.7494H227.689V26.4045H237.045V27.7494H233.125V37.77H231.61V27.7494Z" fill="white"/>
<path d="M240.075 28.4382H240.042L240.058 30.3898V37.77H238.543V26.4045H240.585L246.647 35.7199H246.68L246.664 33.7847V26.4045H248.162V37.77H246.136L240.075 28.4382Z" fill="white"/>
<path d="M250.684 26.4045H258.524V27.7494H252.215V31.4066H257.882V32.7515H252.215V36.4251H258.541V37.77H250.684V26.4045Z" fill="white"/>
<path d="M265.54 31.5051C266.018 31.3411 266.397 31.1115 266.644 30.7999C266.891 30.4883 267.023 30.0947 267.023 29.6518C267.023 29.045 266.809 28.5694 266.364 28.2414C265.936 27.9134 265.31 27.7494 264.486 27.7494H261.636V31.7511H263.761C264.47 31.7511 265.063 31.6691 265.557 31.5215M260.138 26.4046H264.519C265.804 26.4046 266.809 26.6834 267.533 27.2574C268.258 27.8314 268.621 28.5858 268.621 29.5206C268.621 30.0127 268.522 30.4555 268.324 30.8327C268.126 31.2263 267.83 31.5543 267.435 31.8167C267.056 32.0791 266.578 32.2759 266.034 32.3743V32.4071C266.677 32.6531 267.155 33.0139 267.484 33.4895C267.813 33.9651 268.077 34.6048 268.291 35.4084L268.95 37.7536H267.385L266.842 35.7692C266.644 35.0312 266.413 34.4571 266.183 34.0799C265.952 33.7027 265.639 33.4403 265.26 33.2927C264.881 33.1451 264.354 33.0631 263.679 33.0631H261.636V37.7536H260.121V26.3882L260.138 26.4046Z" fill="white"/>
<path d="M272.245 37.5075C271.569 37.1795 271.042 36.6875 270.68 36.0643C270.317 35.4411 270.12 34.6867 270.07 33.8338H271.602C271.635 34.4243 271.783 34.9327 272.03 35.3591C272.278 35.7855 272.64 36.0971 273.085 36.3267C273.546 36.5563 274.089 36.6547 274.732 36.6547C275.325 36.6547 275.852 36.5563 276.28 36.3759C276.708 36.1955 277.054 35.9167 277.268 35.5723C277.499 35.2279 277.614 34.8179 277.614 34.3587C277.614 33.8503 277.45 33.4402 277.104 33.1122C276.758 32.7842 276.165 32.6366 275.308 32.6366H273.826C272.656 32.6366 271.75 32.3578 271.141 31.8002C270.532 31.2426 270.219 30.521 270.219 29.619C270.219 28.9301 270.4 28.3397 270.746 27.8149C271.092 27.2901 271.602 26.8801 272.278 26.5849C272.936 26.2897 273.711 26.1421 274.6 26.1421C275.539 26.1421 276.33 26.3061 276.972 26.6341C277.614 26.9621 278.092 27.4213 278.438 28.0117C278.767 28.6021 278.965 29.291 278.998 30.0782H277.466C277.417 29.2254 277.153 28.5693 276.675 28.1429C276.198 27.7001 275.506 27.4869 274.584 27.4869C274.007 27.4869 273.513 27.5689 273.085 27.7329C272.673 27.8969 272.343 28.1429 272.113 28.4545C271.882 28.7661 271.767 29.1434 271.767 29.5698C271.767 30.0618 271.932 30.439 272.261 30.7178C272.59 30.9966 273.134 31.1442 273.908 31.1442H275.391C276.741 31.1442 277.713 31.4394 278.29 32.0298C278.866 32.6202 279.163 33.3746 279.163 34.2931C279.163 35.0475 278.982 35.6871 278.619 36.2447C278.257 36.8023 277.746 37.2287 277.071 37.5239C276.395 37.8191 275.605 37.9667 274.699 37.9667C273.727 37.9667 272.903 37.8027 272.228 37.4583" fill="white"/>
<path d="M58.4239 19.418C64.9303 19.418 67.6481 17.4336 67.6481 10.7095C67.6481 5.28096 64.9962 2.05009 60.2688 2.05009C56.365 2.05009 56.5297 3.06691 56.4144 6.03537C56.365 8.34782 56.2497 13.1367 56.2003 17.1712C56.2003 18.6308 56.958 19.3688 58.4239 19.4344M48.4421 37.032C51.5387 36.704 52.6753 35.5232 52.84 32.6695C52.9553 30.6195 53.0047 26.3226 53.0047 19.8117C53.0047 14.2683 52.9553 7.495 52.84 6.08457C52.6753 3.23092 51.5387 2.05009 48.4421 1.72208C46.7619 1.55808 46.8608 0.54126 48.4421 0.54126C50.6657 0.54126 52.0823 0.918467 54.2401 0.918467C56.2003 0.918467 58.5228 0.54126 59.9888 0.54126C65.9515 0.54126 71.5519 3.98533 71.5519 10.7095C71.5519 17.9748 66.3468 20.7629 58.3745 20.8285C56.958 20.8285 56.2003 21.6321 56.2003 23.0917C56.2497 27.5526 56.3156 30.6851 56.4144 32.7187C56.5297 34.982 57.7651 36.6384 61.5206 37.0156C63.0854 37.1796 62.9866 38.3112 61.5206 38.1964C59.4617 38.0324 56.958 37.8192 54.8002 37.8192C52.6424 37.8192 50.6822 38.1964 48.4585 38.1964C46.8772 38.1964 46.7784 37.1796 48.4585 37.0156" fill="white"/>
<path d="M80.6783 9.88947C81.3372 9.46307 82.029 9.72547 81.9796 10.4307C81.8643 11.6607 81.7161 16.302 81.7161 17.204C81.7161 17.5812 81.9302 17.696 82.2102 17.696C82.4902 17.696 82.5397 17.5812 82.7044 17.204C85.3069 11.1195 88.5683 9.67627 90.5779 9.67627C91.8297 9.67627 92.6368 10.5947 92.4227 11.9887C92.2086 13.3827 91.3356 14.1372 89.2766 14.1864C84.8786 14.3012 82.0126 17.4172 82.0126 24.1906L82.062 32.6859C82.062 34.9492 83.4127 36.622 87.1682 36.9828C88.7495 37.1468 88.6342 38.2785 87.1682 38.1637C85.1092 37.9997 82.6055 37.7864 80.4477 37.7864C78.2899 37.7864 76.3298 38.1637 74.1061 38.1637C72.5248 38.1637 72.426 37.1468 74.1061 36.9828C77.2028 36.6548 78.3394 35.474 78.5041 32.6203C78.6688 29.8159 78.6688 27.3394 78.6688 24.4366C78.6688 21.5337 78.5041 17.122 78.2899 15.4492C78.0758 13.7764 76.8734 12.9727 75.1933 12.8743C73.892 12.7595 73.612 11.8575 75.1933 11.5787C77.4169 11.2015 79.5912 10.6111 80.7278 9.85667" fill="white"/>
<path d="M98.9636 20.0085C108.303 20.0085 110.626 20.0577 110.626 17.7452C110.626 14.416 108.353 11.3983 104.383 11.3983C100.413 11.3983 98.0412 14.0388 97.2176 18.0732C96.9376 19.4673 97.4317 20.0085 98.9471 20.0085M92.9844 25.601C92.9844 15.646 98.5683 9.67627 104.548 9.67627C113.558 9.67627 118.433 21.1893 111.976 21.1893H98.5683C97.3164 21.1893 96.674 21.9929 96.674 23.551C96.674 31.2427 100.479 35.8184 105.141 35.7692C108.665 35.72 111.548 34.0964 113.278 31.8331C114.529 30.1603 115.172 30.8655 114.151 32.6367C111.548 37.2124 107.364 38.9837 104.333 38.9837C97.7118 38.9837 93.0008 34.1948 93.0008 25.5846" fill="white"/>
<path d="M123.982 29.1599C124.032 34.162 127.293 37.278 131.147 37.278C135.331 37.278 139.12 32.7023 139.12 25.1254C139.12 17.5484 135.315 12.8087 130.867 12.9071C126.799 13.0219 123.867 17.4336 123.916 24.207L123.966 29.1599H123.982ZM116.817 1.93531C119.041 1.5581 121.215 0.967692 122.352 0.213276C123.01 -0.213132 123.702 0.0492731 123.653 0.754488C123.537 1.98451 123.274 15.7116 123.274 17.1712C123.274 17.7616 123.982 17.9256 124.196 17.1712C125.547 12.3823 128.479 9.69267 133.042 9.69267C137.917 9.69267 143.073 14.1536 143.073 23.0917C143.073 33.0468 137.209 39.0165 131.411 39.0165C125.613 39.0165 125.069 35.2444 123.439 35.2444C122.78 35.2444 122.088 36.0972 121.166 37.7208C120.358 39.1149 119.271 39.0657 119.436 37.5076C120.688 25.7814 119.93 16.7448 119.93 5.82219C119.93 4.14936 118.514 3.39494 116.833 3.23094C115.532 3.11614 115.252 2.21412 116.833 1.93531" fill="white"/>
<path d="M152.628 20.0085C161.967 20.0085 164.29 20.0577 164.29 17.7452C164.29 14.416 162.017 11.3983 158.047 11.3983C154.077 11.3983 151.705 14.0388 150.882 18.0732C150.602 19.4673 151.096 20.0085 152.611 20.0085M146.648 25.601C146.648 15.646 152.232 9.67627 158.212 9.67627C167.222 9.67627 172.097 21.1893 165.64 21.1893H152.232C150.981 21.1893 150.338 21.9929 150.338 23.551C150.338 31.2427 154.143 35.8184 158.805 35.7692C162.33 35.72 165.212 34.0964 166.942 31.8331C168.193 30.1603 168.836 30.8655 167.815 32.6367C165.212 37.2124 161.028 38.9837 157.997 38.9837C151.376 38.9837 146.665 34.1948 146.665 25.5846" fill="white"/>
<path d="M178.9 32.7023C178.949 34.9655 180.25 36.6384 184.006 36.9992C185.587 37.1632 185.472 38.2948 184.006 38.18C181.947 38.016 179.443 37.8028 177.285 37.8028C175.128 37.8028 173.167 38.18 170.944 38.18C169.362 38.18 169.264 37.1632 170.944 36.9992C174.04 36.6712 175.177 35.4904 175.342 32.6367C175.506 29.8322 175.506 23.0589 175.506 20.156C175.506 16.9744 175.342 7.67539 175.128 6.11736C174.913 4.44452 173.711 3.69011 172.031 3.5261C170.73 3.4113 170.45 2.50928 172.031 2.23048C174.255 1.85327 176.429 1.26286 177.565 0.508442C178.224 0.0820338 178.916 0.344439 178.867 1.04965C178.702 3.4113 178.702 6.54377 178.702 20.6809C178.702 23.2557 178.867 29.8322 178.916 32.6695" fill="white"/>
<path d="M31.5107 24.7974C35.2663 24.7974 38.33 27.8314 38.33 31.5543C38.33 35.2772 35.2827 38.3112 31.5107 38.3112C27.7387 38.3112 24.6914 35.2772 24.6914 31.5543C24.6914 27.8314 27.7387 24.7974 31.5107 24.7974Z" fill="white"/>
<path d="M6.8193 0.705322C10.5749 0.705322 13.6386 3.73939 13.6386 7.46226C13.6386 11.1851 10.5913 14.2192 6.8193 14.2192C3.04727 14.2192 0 11.1851 0 7.46226C0 3.73939 3.04727 0.705322 6.8193 0.705322Z" fill="white"/>
<path d="M7.67542 38.262C10.7392 37.9011 13.1935 35.4411 13.5723 32.407C13.5723 32.3742 13.5723 32.3414 13.5723 32.3086C14.0006 28.5038 15.5983 24.9285 18.3162 22.2224L21.7752 18.7948C24.526 16.0559 28.2157 14.5307 32.103 14.1863C32.2348 14.1863 32.3666 14.1535 32.4983 14.1371C35.4797 13.7106 37.8681 11.3162 38.247 8.34774C38.8235 3.93605 35.1009 0.21317 30.6535 0.737981C27.6392 1.09879 25.1849 3.49324 24.7566 6.4781C24.7566 6.5273 24.7566 6.5765 24.7402 6.6093C24.2954 10.2994 22.6647 13.7434 20.0292 16.3675L16.2572 20.1068C13.5229 22.8128 9.8991 24.4037 6.06118 24.8137C6.02824 24.8137 5.9953 24.8137 5.96235 24.8137C2.89861 25.1909 0.427846 27.6345 0.0489956 30.6686C-0.494572 35.0639 3.22804 38.7704 7.65894 38.2291" fill="white"/>
</g>
<defs>
<clipPath id="clip0_319_3213">
<rect width="300" height="39" fill="white"/>
</clipPath>
</defs>
</svg>
